<?xml version="1.0" encoding="utf-8"?>
<!-- Generator: Adobe Illustrator 18.0.0, SVG Export Plug-In . SVG Version: 6.00 Build 0)  -->
<!DOCTYPE svg PUBLIC "-//W3C//DTD SVG 1.1//EN" "http://www.w3.org/Graphics/SVG/1.1/DTD/svg11.dtd">
<svg version="1.1" id="Layer_1" xmlns="http://www.w3.org/2000/svg" xmlns:xlink="http://www.w3.org/1999/xlink" x="0px" y="0px"
	 viewBox="0 0 68 68" enable-background="new 0 0 68 68" xml:space="preserve">
<path d="M33.8,5.9C17.7,5.9,4.7,18.9,4.7,35c0,7.5,2.8,14.2,7.4,19.4c5.3,6,13.1,9.7,21.7,9.7c8.7,0,16.5-3.9,21.9-9.9
	c4.5-5.1,7.2-11.8,7.2-19.2C62.9,18.9,49.9,5.9,33.8,5.9z M54.2,50.3c-1.9-1.5-5.6-2.7-9.3-4.2c-4.4-1.8-5.4-2.5-5.4-2.5l0-4.2
	c0,0,1.6-1.3,2.2-5.2c1,0.3,2.1-1.5,2.2-2.5c0.1-0.9-0.1-3.5-1.4-3.3c0.3-1.9,0.4-3.7,0.3-4.6c-0.3-3.4-3.7-7-8.8-7
	c-5.1,0-8.5,3.6-8.8,7c-0.1,0.9,0.1,2.7,0.4,4.6c-1.3-0.3-1.5,2.3-1.4,3.3c0.1,1,1.1,2.8,2.2,2.5c0.5,4,2.2,5.2,2.2,5.2l0,4.2
	c0,0-1,0.6-5.4,2.5c-3.8,1.6-7.6,2.7-9.4,4.3c-3.3-4.3-5.2-9.6-5.2-15.4c0-14,11.4-25.5,25.5-25.5c14,0,25.5,11.4,25.5,25.5
	C59.3,40.7,57.4,46,54.2,50.3z"/>
</svg>
